HIERARCHY
ROOT Hips
{
	OFFSET -240.519104 92.930817 402.348785
	CHANNELS 6 Xposition Yposition Zposition Zrotation Yrotation Xrotation 
	JOINT LeftUpLeg
	{
		OFFSET 0.103457 1.857819 10.548500
		CHANNELS 3 Zrotation Yrotation Xrotation
		JOINT LeftLeg
		{
			OFFSET 43.500000 -0.000019 -0.000010
			CHANNELS 3 Zrotation Yrotation Xrotation
			JOINT LeftFoot
			{
				OFFSET 42.372196 0.000008 0.000000
				CHANNELS 3 Zrotation Yrotation Xrotation
				JOINT LeftToe
				{
					OFFSET 17.300003 0.000001 0.000006
					CHANNELS 3 Zrotation Yrotation Xrotation
					End Site
					{
						OFFSET 0.000000 0.000000 0.000000
					}
				}
			}
		}
	}
	JOINT RightUpLeg
	{
		OFFSET 0.103456 1.857821 -10.548498
		CHANNELS 3 Zrotation Yrotation Xrotation
		JOINT RightLeg
		{
			OFFSET 43.500046 -0.000031 0.000019
			CHANNELS 3 Zrotation Yrotation Xrotation
			JOINT RightFoot
			{
				OFFSET 42.372261 -0.000004 0.000021
				CHANNELS 3 Zrotation Yrotation Xrotation
				JOINT RightToe
				{
					OFFSET 17.300016 0.000003 0.000000
					CHANNELS 3 Zrotation Yrotation Xrotation
					End Site
					{
						OFFSET 0.000000 0.000000 0.000000
					}
				}
			}
		}
	}
	JOINT Spine
	{
		OFFSET 6.901967 -2.603733 -0.000002
		CHANNELS 3 Zrotation Yrotation Xrotation
		JOINT Spine1
		{
			OFFSET 12.588102 0.000004 -0.000004
			CHANNELS 3 Zrotation Yrotation Xrotation
			JOINT Spine2
			{
				OFFSET 12.343203 -0.000004 0.000000
				CHANNELS 3 Zrotation Yrotation Xrotation
				JOINT Neck
				{
					OFFSET 25.832895 -0.000011 0.000005
					CHANNELS 3 Zrotation Yrotation Xrotation
					JOINT Head
					{
						OFFSET 11.766605 0.000003 0.000008
						CHANNELS 3 Zrotation Yrotation Xrotation
						End Site
						{
							OFFSET 0.000000 0.000000 0.000000
						}
					}
				}
				JOINT LeftShoulder
				{
					OFFSET 19.745905 -1.480360 6.000111
					CHANNELS 3 Zrotation Yrotation Xrotation
					JOINT LeftArm
					{
						OFFSET 11.284124 0.000007 -0.000017
						CHANNELS 3 Zrotation Yrotation Xrotation
						JOINT LeftForeArm
						{
							OFFSET 33.000050 0.000003 0.000017
							CHANNELS 3 Zrotation Yrotation Xrotation
							JOINT LeftHand
							{
								OFFSET 25.200005 0.000010 0.000011
								CHANNELS 3 Zrotation Yrotation Xrotation
								End Site
								{
									OFFSET 0.000000 0.000000 0.000000
								}
							}
						}
					}
				}
				JOINT RightShoulder
				{
					OFFSET 19.746092 -1.480387 -6.000073
					CHANNELS 3 Zrotation Yrotation Xrotation
					JOINT RightArm
					{
						OFFSET 11.284132 -0.000045 -0.000015
						CHANNELS 3 Zrotation Yrotation Xrotation
						JOINT RightForeArm
						{
							OFFSET 33.000092 0.000031 0.000005
							CHANNELS 3 Zrotation Yrotation Xrotation
							JOINT RightHand
							{
								OFFSET 25.199797 0.000145 0.000419
								CHANNELS 3 Zrotation Yrotation Xrotation
								End Site
								{
									OFFSET 0.000000 0.000000 0.000000
								}
							}
						}
					}
				}
			}
		}
	}
}
MOTION
Frames: 4
Frame Time: 0.033333
-72.07756000000003 86.40142100000001 -1112.411773 102.25890100000001 -4.151229 98.226316 174.46688200000003 5.197291 161.30591400000003 -31.543955 7.441526999999999 -4.599577 87.023884 -0.631612 -19.992621 21.454555 0.003097 1.6e-05 140.201025 5.625698 -168.546939 -61.06407699999999 -2.208176 -13.701020999999999 82.694821 10.210831000000004 2.957469 21.454551 -0.003088000000000001 2e-06 7.675718 -2.502591 -1.1379760000000003 5.395376 -4.949703999999999 -2.393028 5.076282 -4.964187 -2.363049 -1.487116 0.151537 -15.212393999999996 -3.077478 15.618921 -18.631303 178.724781 -76.18140300000002 -0.11062200000000003 -3.7478479999999994 44.396462 42.60984500000001 -29.841168000000003 -13.034271 1.1264710000000002 8.890984 -3.6730310000000004 10.405444000000001 -166.759793 71.083336 14.970354 -28.298560999999996 -50.172452 -18.329806 -33.035808 10.138233000000001 -0.9758910000000001 8.910483 5.964176 -35.931839 
-70.23422200000002 86.15863799999998 -1108.935271 102.91050099999998 -3.656902999999999 94.823175 178.857724 6.77941 159.179321 -28.944688999999997 6.976478000000002 -4.739486 87.467075 -0.52456 -20.608487 21.454556999999998 0.003104 1.6e-05 139.840514 5.416898000000001 -163.89705500000002 -49.961898 -0.908492 -9.714542000000002 82.164778 7.225685999999999 2.210135 21.454548000000003 -0.003075 -0.0 7.6106359999999995 -2.5381649999999993 -1.3053079999999997 5.273233000000001 -5.014561 -2.726911 4.954194 -5.031061000000001 -2.6965369999999997 -1.3743150000000004 -0.154755 -15.541279 -3.484775 16.408066 -19.372562999999996 179.443782 -76.167845 -0.8453310000000002 -4.789117999999999 43.17633399999999 40.820455 -30.499171999999998 -13.910919 1.1957369999999998 8.093157999999999 -6.551343 9.371087000000001 -166.589694 71.368797 15.145084000000004 -23.813837000000003 -49.467228 -21.662764999999997 -33.222259 10.126333 -0.9782129999999998 8.917084 5.527861999999999 -35.75858100000001 
-68.77307099999999 85.74353799999999 -1105.506683 103.27320499999999 -3.328423 92.215825 -177.179123 8.598008999999998 159.416752 -26.345484 6.625104000000001 -5.68587 87.687881 0.013716000000000004 -21.659356000000006 21.454556999999998 0.003109 1.7e-05 140.450382 4.4759970000000004 -158.083472 -38.067328999999994 -0.2413820000000001 -3.5919310000000015 81.711705 3.018554 2.5127570000000006 21.454556999999998 -0.0030980000000000005 1e-06 7.516011999999998 -2.525457 -1.446732 5.089460000000001 -4.985229 -3.005352 4.770527 -5.003418000000001 -2.975151999999999 -1.400277 -0.634644 -15.948416999999997 -3.8598169999999996 17.321483 -20.289222000000006 179.757929 -76.334037 -1.169739 -6.076027999999998 42.289663 38.14876100000001 -31.171037 -14.876937 1.271291 7.595971999999999 -8.024810999999998 11.165591 -166.169418 71.542994 15.577965999999998 -19.126934 -49.009893 -24.696506000000003 -32.794395 10.292303999999998 -0.9809249999999999 8.593342 6.485049000000001 -34.985889000000014 
-67.705276 85.082474 -1102.186584 103.648107 -3.007597 89.92877 -174.126316 10.380921000000003 160.152391 -25.133086 6.765280999999999 -6.950982000000001 87.78925500000001 0.580436 -23.617905 21.454556999999998 0.0030980000000000005 1.7e-05 141.211292 2.8676059999999994 -151.969633 -27.973764000000003 -0.742729 2.3445180000000008 81.365441 -1.488802 0.830891 21.454551 -0.0030859999999999998 3e-06 7.422295000000002 -2.540342 -1.493126 4.904274 -5.015567 -3.09484 4.585359999999999 -5.034284 -3.064468 -1.4840080000000002 -1.2130149999999997 -16.430367 -4.277854 18.245406 -21.336608999999992 179.43980699999997 -76.50011299999998 -0.84808 -7.406638 41.545698 35.01904600000001 -31.920455000000008 -15.703971 1.3398560000000002 7.294259000000002 -8.735307 14.137108999999999 -165.71461 71.485586 16.047097 -14.417172 -48.929976 -27.099920999999995 -31.340494 10.669776999999998 -0.975967 8.048873000000002 8.172824 -34.096035 
